<?xml version="1.0" encoding="utf-8"?>
<svg
	version="1.1"
	xmlns="http://www.w3.org/2000/svg"
	xmlns:xlink="http://www.w3.org/1999/xlink"
	x="0%" y="0%"
	width="100%" height="100%"
	viewBox="0 0 500.0 500.0"
	enable-background="new 0 0 500.0 500.0"
	xml:space="preserve">
	<path
		fill="#EA4335"
		stroke="#000000"
		fill-opacity="1.000"
		stroke-opacity="1.000"
		fill-rule="nonzero"
		stroke-width="0.0"
		stroke-linejoin="miter"
		stroke-linecap="square"
		d="M250.00,0.00C388.07,0.00,500.00,111.93,500.00,250.00C500.00,388.07,388.07,500.00,250.00,500.00C111.93,500.00,0.00,388.07,0.00,250.00C0.00,111.93,111.93,0.00,250.00,0.00z"/>
	<path
		fill="#FFFFFF"
		stroke="#000000"
		fill-opacity="1.000"
		stroke-opacity="1.000"
		fill-rule="nonzero"
		stroke-width="0.0"
		stroke-linejoin="miter"
		stroke-linecap="square"
		d="M250.00,187.72L244.77,187.72C242.88,187.72,240.09,188.33,238.75,191.14L191.52,301.42C189.36,307.06,191.59,309.73,196.01,309.73L250.00,309.73L303.99,309.73C308.41,309.73,310.64,307.06,308.48,301.42L261.25,191.14C259.91,188.33,257.12,187.72,255.23,187.72L250.00,187.72L250.00,93.49L263.76,93.49C271.17,93.49,279.38,94.93,284.14,106.64L383.24,343.30C388.36,356.52,377.81,364.85,368.66,364.85L249.80,364.85L131.34,364.85C122.19,364.85,111.64,356.52,116.76,343.30L215.86,106.64C220.62,94.93,228.83,93.49,236.24,93.49L250.00,93.49L250.00,187.72z"/>
</svg>